# xmcd
#
# Track frame offsets:
#	150
#	13089
#	25583
#	44067
#	60044
#	81928
#	98852
#	111764
#	131530
#	147061
#	164709
#	179571
#	195270
#	215976
#	229779
#	247762
#	266191
#	278155
#	290788
#	306193
#
# Disc length: 4274
#
# Revision: 1
# Processed by: cddbd v1.5.1PL0 Copyright (c) Steve Scherf et al.
# Submitted via: FreeRIP 2.70 
# Normalized: r0:TDELIM( - )
#
DISCID=2610b014
DTITLE=Boot Scootin' 4
DYEAR=1997
DGENRE=Country
TTITLE0=Alan Jackson - Don't Rock the Jukebox
TTITLE1=Roger Brown and Swing City - Swing City
TTITLE2=Jimmy Buffett - Margaritaville
TTITLE3=Rick Trevino - I Only Get This Way With You
TTITLE4=Martina McBride - Life #9 (Dance Mix)
TTITLE5=Shenandoah - If Bubba Can Dance (Dance Mix)
TTITLE6=Bobby Helms - Fraulein
TTITLE7=Brooks and Dunn - My Maria (Extended Remix)
TTITLE8=Charlie Daniels Band - Boogie Woogie Fiddle Country Blues
TTITLE9=John Michael Montgomery - I Love the Way You Love Me
TTITLE10=George Strait - The Man In Love With You
TTITLE11=Dolly Parton and Friends - Romeo
TTITLE12=Steve Earle - Copperhead Road
TTITLE13=Collin Raye - That's My Story
TTITLE14=Hank Williams, Jr. - Family Tradition
TTITLE15=Wynonna Judd - No One Else On Earth (Dance Mix)
TTITLE16=Tim McGraw - Refried Dreams
TTITLE17=Patsy Cline - I Fall To Pieces
TTITLE18=Ty England - Redneck Son (remix)
TTITLE19=Lionel Cartwright - My Heart Is Set On You
EXTD=
EXTT0=
EXTT1=
EXTT2=
EXTT3=
EXTT4=
EXTT5=
EXTT6=
EXTT7=
EXTT8=
EXTT9=
EXTT10=
EXTT11=
EXTT12=
EXTT13=
EXTT14=
EXTT15=
EXTT16=
EXTT17=
EXTT18=
EXTT19=
PLAYORDER=
